<?xml version="1.0" encoding="UTF-8" standalone="no"?>
<!-- Created with Inkscape (http://www.inkscape.org/) -->

<svg
   xmlns:dc="http://purl.org/dc/elements/1.1/"
   xmlns:cc="http://creativecommons.org/ns#"
   xmlns:rdf="http://www.w3.org/1999/02/22-rdf-syntax-ns#"
   xmlns:svg="http://www.w3.org/2000/svg"
   xmlns="http://www.w3.org/2000/svg"
   xmlns:sodipodi="http://sodipodi.sourceforge.net/DTD/sodipodi-0.dtd"
   xmlns:inkscape="http://www.inkscape.org/namespaces/inkscape"
   id="svg2"
   sodipodi:docname="bathroom-scale-small.svg"
   inkscape:export-filename="C:\Documents and Settings\Tim H\My Documents\Tom\SVG\TO_OCAL\bathroom scales.png"
   viewBox="0 0 354.14359 354.96935"
   sodipodi:version="0.32"
   inkscape:export-xdpi="70"
   version="1.0"
   inkscape:output_extension="org.inkscape.output.svg.inkscape"
   inkscape:export-ydpi="70"
   inkscape:version="0.91 r13725"
   width="354.14359"
   height="354.96936">
  <defs
     id="defs29" />
  <sodipodi:namedview
     id="base"
     bordercolor="#666666"
     inkscape:pageshadow="2"
     guidetolerance="10"
     pagecolor="#ffffff"
     gridtolerance="10000"
     inkscape:window-height="808"
     inkscape:zoom="0.62498317"
     objecttolerance="10"
     showgrid="false"
     borderopacity="1.0"
     inkscape:current-layer="layer1"
     inkscape:cx="207.6195"
     inkscape:cy="57.28286"
     inkscape:window-y="-4"
     inkscape:window-x="-4"
     inkscape:window-width="1152"
     inkscape:pageopacity="0.0"
     inkscape:document-units="px"
     inkscape:window-maximized="0"
     fit-margin-top="0"
     fit-margin-left="0"
     fit-margin-right="0"
     fit-margin-bottom="0" />
  <g
     id="layer1"
     inkscape:label="Layer 1"
     inkscape:groupmode="layer"
     transform="translate(-194.97702,-135.79303)">
    <g
       id="g4212">
      <rect
         id="rect2383"
         ry="56.786205"
         style="fill:#ebebeb;stroke:#000000;stroke-width:4.37879992"
         height="349.62445"
         width="349.62445"
         y="138.26875"
         x="197.23778" />
      <path
         sodipodi:nodetypes="cssssssssssssssccccccsssssssssssssscc"
         inkscape:connector-curvature="0"
         transform="translate(124.33,135.79)"
         id="rect2395"
         d="m 129.46094,2.4902344 c -1.88589,0.00758 -3.75261,0.095783 -5.58985,0.28125 -1.91362,0.1931784 -3.79874,0.4804369 -5.65039,0.8574218 -1.85165,0.376985 -3.66891,0.8431117 -5.44922,1.3945313 -1.7803,0.5514196 -3.52306,1.1878147 -5.22265,1.9042969 -1.6996,0.7164822 -3.35534,1.5125927 -4.96485,2.3847656 -1.6095,0.872173 -3.171589,1.819399 -4.681636,2.837891 -1.510047,1.018491 -2.967925,2.108233 -4.369141,3.263671 -1.401216,1.155439 -2.746283,2.377143 -4.029297,3.660157 -1.283013,1.283013 -2.504718,2.62808 -3.660156,4.029297 -1.155438,1.401216 -2.24518,2.859093 -3.263672,4.36914 -1.018492,1.510047 -1.965718,3.072135 -2.83789,4.681641 -0.872173,1.609506 -1.668284,3.26525 -2.384766,4.964844 -0.716482,1.699593 -1.352877,3.442347 -1.904297,5.222656 -0.55142,1.780308 -1.019499,3.59952 -1.396484,5.451172 -0.356396,1.750522 -0.6182,3.535659 -0.810547,5.341797 l 77.333986,77.326174 0,222.02425 194.2793,0 0,-222.02425 77.33203,-77.332034 c -0.19232,-1.804045 -0.4526,-3.587387 -0.8086,-5.335937 -0.37698,-1.851652 -0.84311,-3.670864 -1.39453,-5.451172 -0.55142,-1.780309 -1.18781,-3.523063 -1.9043,-5.222656 -0.71648,-1.699594 -1.51454,-3.355338 -2.38671,-4.964844 -0.87218,-1.609506 -1.8194,-3.171594 -2.83789,-4.681641 -1.0185,-1.510047 -2.10824,-2.967924 -3.26368,-4.36914 -1.15544,-1.401217 -2.37714,-2.746284 -3.66015,-4.029297 -1.28302,-1.283014 -2.62613,-2.504718 -4.02735,-3.660157 -1.40121,-1.155438 -2.85909,-2.24518 -4.36914,-3.263671 -1.51004,-1.018492 -3.07213,-1.965718 -4.68164,-2.837891 -1.6095,-0.8721729 -3.2672,-1.6682834 -4.9668,-2.3847656 -1.69959,-0.7164822 -3.44234,-1.3528773 -5.22265,-1.9042969 -1.78031,-0.5514196 -3.59757,-1.0175463 -5.44922,-1.3945313 -1.85165,-0.3769849 -3.73677,-0.6642434 -5.65039,-0.8574218 -1.83723,-0.1854669 -3.70396,-0.2736738 -5.58984,-0.28125 z"
         style="fill:#e1e1e1;stroke:#000000;stroke-width:4.97440004" />
      <path
         transform="translate(124.33,135.79)"
         id="rect2393"
         d="m 129.46094,2.4902344 c -1.88589,0.00758 -3.75261,0.095783 -5.58985,0.28125 -1.91362,0.1931784 -3.79874,0.4804369 -5.65039,0.8574218 -1.85165,0.376985 -3.66891,0.8431117 -5.44922,1.3945313 -1.7803,0.5514196 -3.52306,1.1878147 -5.22265,1.9042969 -1.6996,0.7164822 -3.35534,1.5125927 -4.96485,2.3847656 -1.6095,0.872173 -3.171589,1.819399 -4.681636,2.837891 -1.510047,1.018491 -2.967925,2.108233 -4.369141,3.263671 -1.401216,1.155439 -2.746283,2.377143 -4.029297,3.660157 -0.495022,0.495022 -0.93565,1.041641 -1.412109,1.554687 2.027976,3.174509 4.29799,6.24135 7.078125,9.021485 L 210.33008,144.83008 c 20.7,20.71 54.06929,20.71 74.7793,0 L 400.25977,29.650391 c 2.78428,-2.780686 5.05669,-5.848233 7.08593,-9.023438 -0.47586,-0.512349 -0.91578,-1.058362 -1.41015,-1.552734 -1.28302,-1.283014 -2.62613,-2.504718 -4.02735,-3.660157 -1.40121,-1.155438 -2.85909,-2.24518 -4.36914,-3.263671 -1.51004,-1.018492 -3.07213,-1.965718 -4.68164,-2.837891 -1.6095,-0.8721729 -3.2672,-1.6682834 -4.9668,-2.3847656 -1.69959,-0.7164822 -3.44234,-1.3528773 -5.22265,-1.9042969 -1.78031,-0.5514196 -3.59757,-1.0175463 -5.44922,-1.3945313 -1.85165,-0.3769849 -3.73677,-0.6642434 -5.65039,-0.8574218 -1.83723,-0.1854669 -3.70396,-0.2736738 -5.58984,-0.28125 l -236.51758,0 z"
         style="fill:#aeaeae;stroke:#000000;stroke-width:4"
         inkscape:connector-curvature="0" />
      <path
         id="rect2408"
         style="fill:#ffffff;stroke:#000000;stroke-width:3.62111998"
         d="m 372.05948,148.98596 c -42.35805,0 -80.51561,18.16897 -107.07652,47.13793 l 58.48109,58.48109 c 11.49705,-14.12237 29.01422,-23.08464 48.59543,-23.08464 19.59026,0 37.07121,8.96227 48.57732,23.08464 l 58.47204,-58.48109 C 452.55697,167.15493 414.41753,148.98596 372.05948,148.98596 Z"
         inkscape:export-ydpi="36.986565"
         inkscape:export-xdpi="36.986565"
         inkscape:connector-curvature="0" />
      <path
         id="use2741"
         inkscape:tile-x0="372.04724"
         style="fill:none;stroke:#000000;stroke-width:4.00002766"
         d="m 372.04,199.86736 0,22.66598"
         inkscape:transform-center-y="-88.401115"
         inkscape:tile-y0="201.44559"
         inkscape:connector-curvature="0" />
      <path
         id="use2743"
         inkscape:tile-x0="372.04724"
         style="fill:none;stroke:#000000;stroke-width:4.00001955"
         d="m 389.36565,201.3788 -3.93586,22.32149"
         inkscape:transform-center-y="-88.401115"
         inkscape:tile-y0="201.44559"
         inkscape:connector-curvature="0" />
      <path
         id="use2745"
         inkscape:tile-x0="372.04724"
         style="fill:none;stroke:#000000;stroke-width:4.00002003"
         d="m 406.15512,205.88684 -7.75215,21.29905"
         inkscape:transform-center-y="-88.401115"
         inkscape:tile-y0="201.44559"
         inkscape:connector-curvature="0" />
      <path
         id="use2747"
         inkscape:tile-x0="372.04724"
         style="fill:none;stroke:#000000;stroke-width:4.00000811"
         d="m 421.91235,213.22785 -11.33257,19.6292"
         inkscape:transform-center-y="-88.401115"
         inkscape:tile-y0="201.44559"
         inkscape:connector-curvature="0" />
      <path
         id="use2749"
         inkscape:tile-x0="372.04724"
         style="fill:none;stroke:#000000;stroke-width:4.00001431"
         d="m 436.15572,223.19569 -14.56959,17.36285"
         inkscape:transform-center-y="-88.401115"
         inkscape:tile-y0="201.44559"
         inkscape:connector-curvature="0" />
      <path
         id="use2805"
         inkscape:tile-x0="372.04724"
         style="fill:none;stroke:#000000;stroke-width:4.00001431"
         d="m 307.94135,223.20529 14.5696,17.36285"
         inkscape:transform-center-y="-88.401115"
         inkscape:tile-y0="201.44559"
         inkscape:connector-curvature="0" />
      <path
         id="use2807"
         inkscape:tile-x0="372.04724"
         style="fill:none;stroke:#000000;stroke-width:4.00000811"
         d="m 322.17681,213.23385 11.33256,19.6292"
         inkscape:transform-center-y="-88.401115"
         inkscape:tile-y0="201.44559"
         inkscape:connector-curvature="0" />
      <path
         id="use2809"
         inkscape:tile-x0="372.04724"
         style="fill:none;stroke:#000000;stroke-width:4.00002003"
         d="m 337.93539,205.88621 7.75215,21.29904"
         inkscape:transform-center-y="-88.401115"
         inkscape:tile-y0="201.44559"
         inkscape:connector-curvature="0" />
      <path
         id="use3545"
         inkscape:tile-x0="372.04724"
         style="fill:none;stroke:#000000;stroke-width:4.00003576"
         d="m 372.05231,182.62694 0,-30.64605"
         inkscape:transform-center-x="0.49999997"
         inkscape:transform-center-y="-122.73353"
         inkscape:tile-y0="121.33696"
         inkscape:connector-curvature="0" />
      <path
         id="use3547"
         inkscape:tile-x0="372.04724"
         style="fill:none;stroke:#000000;stroke-width:4.00002384"
         d="m 399.86353,186.15774 7.93166,-29.60193"
         inkscape:transform-center-x="0.49999997"
         inkscape:transform-center-y="-122.73353"
         inkscape:tile-y0="121.33696"
         inkscape:connector-curvature="0" />
      <path
         id="use3549"
         inkscape:tile-x0="372.04724"
         style="fill:none;stroke:#000000;stroke-width:4.00004196"
         d="m 425.82514,196.76976 15.32325,-26.5402"
         inkscape:transform-center-x="0.49999997"
         inkscape:transform-center-y="-122.73353"
         inkscape:tile-y0="121.33696"
         inkscape:connector-curvature="0" />
      <path
         id="use3551"
         inkscape:tile-x0="372.04724"
         style="fill:none;stroke:#000000;stroke-width:4.00005007"
         d="m 448.14289,213.73659 21.67026,-21.67026"
         inkscape:transform-center-x="0.49999997"
         inkscape:transform-center-y="-122.73353"
         inkscape:tile-y0="121.33696"
         inkscape:connector-curvature="0" />
      <path
         id="use3587"
         inkscape:tile-x0="372.04724"
         style="fill:none;stroke:#000000;stroke-width:4.00005007"
         d="M 296.24769,214.43711 274.57743,192.76685"
         inkscape:transform-center-x="0.49999997"
         inkscape:transform-center-y="-122.73353"
         inkscape:tile-y0="121.33696"
         inkscape:connector-curvature="0" />
      <path
         id="use3589"
         inkscape:tile-x0="372.04724"
         style="fill:none;stroke:#000000;stroke-width:4.00004196"
         d="m 318.41488,197.26945 -15.32324,-26.5402"
         inkscape:transform-center-x="0.49999997"
         inkscape:transform-center-y="-122.73353"
         inkscape:tile-y0="121.33696"
         inkscape:connector-curvature="0" />
      <path
         id="use3591"
         inkscape:tile-x0="372.04724"
         style="fill:none;stroke:#000000;stroke-width:4.00002384"
         d="m 344.26662,186.41406 -7.93166,-29.60193"
         inkscape:transform-center-x="0.49999997"
         inkscape:transform-center-y="-122.73353"
         inkscape:tile-y0="121.33696"
         inkscape:connector-curvature="0" />
      <path
         id="path3691"
         inkscape:tile-x0="372.04724"
         style="fill:none;stroke:#000000;stroke-width:4.00000143"
         d="m 354.81176,201.36543 3.916,22.32488"
         inkscape:transform-center-x="15.273066"
         inkscape:transform-center-y="-87.071755"
         inkscape:tile-y0="201.44559"
         inkscape:connector-curvature="0" />
      <path
         id="path2425"
         d="m 372.05013,152.36388 0,76.09484"
         style="fill:none;stroke:#d40000;stroke-width:5.9999733"
         inkscape:connector-curvature="0" />
    </g>
  </g>
  <metadata
     id="metadata27">
    <rdf:RDF>
      <cc:Work>
        <dc:format>image/svg+xml</dc:format>
        <dc:type
           rdf:resource="http://purl.org/dc/dcmitype/StillImage" />
        <cc:license
           rdf:resource="http://creativecommons.org/publicdomain/zero/1.0/" />
        <dc:publisher>
          <cc:Agent
             rdf:about="http://openclipart.org/">
            <dc:title>Openclipart</dc:title>
          </cc:Agent>
        </dc:publisher>
        <dc:title>Bathroom scale</dc:title>
        <dc:date>2009-04-01T10:36:25</dc:date>
        <dc:description>very simplistic top on view of simple bathroom scales with analogue dial.</dc:description>
        <dc:source>https://openclipart.org/detail/23591/bathroom-scale-by-tom-23591</dc:source>
        <dc:creator>
          <cc:Agent>
            <dc:title>tom</dc:title>
          </cc:Agent>
        </dc:creator>
        <dc:subject>
          <rdf:Bag>
            <rdf:li>ballance</rdf:li>
            <rdf:li>bathroom</rdf:li>
            <rdf:li>cartoon</rdf:li>
            <rdf:li>color</rdf:li>
            <rdf:li>icon</rdf:li>
            <rdf:li>kitchen</rdf:li>
            <rdf:li>mass</rdf:li>
            <rdf:li>scale</rdf:li>
            <rdf:li>simple</rdf:li>
            <rdf:li>toilet</rdf:li>
            <rdf:li>tool</rdf:li>
            <rdf:li>weight</rdf:li>
            <rdf:li>weight loss</rdf:li>
          </rdf:Bag>
        </dc:subject>
      </cc:Work>
      <cc:License
         rdf:about="http://creativecommons.org/publicdomain/zero/1.0/">
        <cc:permits
           rdf:resource="http://creativecommons.org/ns#Reproduction" />
        <cc:permits
           rdf:resource="http://creativecommons.org/ns#Distribution" />
        <cc:permits
           rdf:resource="http://creativecommons.org/ns#DerivativeWorks" />
      </cc:License>
    </rdf:RDF>
  </metadata>
</svg>
